; NON-PLATED HOLES START AT T1
; THROUGH (PLATED) HOLES START AT T100
M48
INCH
T1C0.086614
T100C0.035000
T101C0.040000
T102C0.015748
%
T1
X116987Y012785
X154192Y001761
X001042Y014753
X001042Y001171
X107342Y001761
X195924Y014950
X081160Y012588
X195333Y001367
X152420Y013375
T100
X053601Y011013
X023924Y011848
X045530Y012045
X045530Y013045
X136082Y014163
X147893Y014163
X077026Y014163
X015546Y010816
X019546Y009832
X053601Y010029
X015971Y014163
X122271Y014163
X045530Y010045
X023924Y012848
X053404Y014163
X053601Y008060
X048530Y008045
X048530Y010045
X075026Y014163
X045530Y006045
X053601Y009045
X145893Y014163
X020924Y010848
X044349Y011013
X019546Y007863
X027782Y014163
X048530Y007045
X019546Y008848
X044349Y008060
X040349Y011013
X183326Y014163
X015546Y007863
X020924Y006848
X086837Y014163
X023924Y006848
X039593Y014163
X020924Y008848
X063215Y014163
X100648Y014163
X045530Y009045
X049601Y009045
X028995Y010816
X040349Y008060
X020924Y009848
X124271Y014163
X195137Y014163
X040349Y009045
X159704Y014163
X045530Y008045
X020924Y011848
X051404Y014163
X048530Y013045
X088837Y014163
X048530Y012045
X020924Y007848
X041593Y014163
X015546Y008848
X020924Y012848
X023924Y008848
X045530Y007045
X169515Y014163
X023924Y010848
X029782Y014163
X048530Y006045
X171515Y014163
X024995Y009832
X028995Y009832
X049601Y008060
X049601Y011013
X181326Y014163
X024995Y007863
X028995Y008848
X112460Y014163
X044349Y010029
X048530Y009045
X024995Y010816
X019546Y010816
X157704Y014163
X065215Y014163
X110460Y014163
X020924Y005848
X024995Y008848
X098648Y014163
X028995Y007863
X049601Y010029
X045530Y011045
X193137Y014163
X023924Y007848
X023924Y005848
X017971Y014163
X040349Y010029
X023924Y009848
X134082Y014163
X048530Y011045
X015546Y009832
X044349Y009045
T101
X003538Y013178
X004538Y010816
X002538Y013178
X007538Y013178
X003538Y010816
X005538Y010816
X006538Y010816
X005538Y013178
X007538Y010816
X002538Y010816
X004538Y013178
X006538Y013178
T102
X035688Y005895
X031357Y008257
X032341Y006879
X056751Y001761
X013050Y012391
X029192Y012194
X052026Y011997
X159114Y011800
X008128Y005304
X031947Y010029
X046121Y004517
X056751Y002352
X032735Y006092
X088444Y001367
X121515Y005895
X050845Y011997
X056751Y007076
X056751Y006485
X187657Y009832
X058719Y000974
X056751Y003533
X015412Y003533
X141200Y007667
X049664Y013769
X035097Y004714
X056751Y002942
X026829Y003336
X109704Y004911
X170137Y011407
X059703Y001170
X132736Y006879
X031751Y007667
X098680Y002548
X005373Y005304
X035294Y003926
X047499Y013966
X179586Y010816
X011475Y010422
X035294Y005304
X025845Y004320
X030373Y012194
T00
M30
