G04 MADE WITH FRITZING*
G04 WWW.FRITZING.ORG*
G04 DOUBLE SIDED*
G04 HOLES PLATED*
G04 CONTOUR ON CENTER OF CONTOUR VECTOR*
%ASAXBY*%
%FSLAX23Y23*%
%MOIN*%
%OFA0B0*%
%SFA1.0B1.0*%
%ADD10C,0.085000*%
%ADD11C,0.084000*%
%ADD12C,0.049370*%
%ADD13C,0.096614*%
%ADD14R,0.084000X0.084000*%
%ADD15R,0.085000X0.085000*%
%LNMASK0*%
G90*
G70*
G54D10*
X3959Y1416D03*
X4159Y1416D03*
X6322Y1416D03*
X6522Y1416D03*
X5140Y1416D03*
X5340Y1416D03*
X9865Y1416D03*
X10065Y1416D03*
X8684Y1416D03*
X8884Y1416D03*
X7503Y1416D03*
X7703Y1416D03*
X2778Y1416D03*
X2978Y1416D03*
X1597Y1416D03*
X1797Y1416D03*
X12227Y1416D03*
X12427Y1416D03*
X11046Y1416D03*
X11246Y1416D03*
X14589Y1416D03*
X14789Y1416D03*
X13408Y1416D03*
X13608Y1416D03*
X15770Y1416D03*
X15970Y1416D03*
X16952Y1416D03*
X17152Y1416D03*
X18133Y1416D03*
X18333Y1416D03*
X19314Y1416D03*
X19514Y1416D03*
G54D11*
X754Y1082D03*
X654Y1082D03*
X554Y1082D03*
X454Y1082D03*
X354Y1082D03*
X254Y1082D03*
X754Y1318D03*
X654Y1318D03*
X554Y1318D03*
X454Y1318D03*
X354Y1318D03*
X254Y1318D03*
G54D10*
X2092Y1285D03*
X2392Y1285D03*
X2092Y1185D03*
X2392Y1185D03*
X2092Y1085D03*
X2392Y1085D03*
X2092Y985D03*
X2392Y985D03*
X2092Y885D03*
X2392Y885D03*
X2092Y785D03*
X2392Y785D03*
X2092Y685D03*
X2392Y685D03*
X2092Y585D03*
X2392Y585D03*
X4553Y1305D03*
X4853Y1305D03*
X4553Y1205D03*
X4853Y1205D03*
X4553Y1105D03*
X4853Y1105D03*
X4553Y1005D03*
X4853Y1005D03*
X4553Y905D03*
X4853Y905D03*
X4553Y805D03*
X4853Y805D03*
X4553Y705D03*
X4853Y705D03*
X4553Y605D03*
X4853Y605D03*
X4960Y806D03*
X5360Y806D03*
X4960Y1003D03*
X5360Y1003D03*
X4960Y905D03*
X5360Y905D03*
X4960Y1101D03*
X5360Y1101D03*
X4035Y806D03*
X4435Y806D03*
X4035Y905D03*
X4435Y905D03*
X4035Y1003D03*
X4435Y1003D03*
X4035Y1101D03*
X4435Y1101D03*
X2500Y786D03*
X2900Y786D03*
X2500Y885D03*
X2900Y885D03*
X2500Y983D03*
X2900Y983D03*
X2500Y1082D03*
X2900Y1082D03*
X1555Y786D03*
X1955Y786D03*
X1555Y885D03*
X1955Y885D03*
X1555Y983D03*
X1955Y983D03*
X1555Y1082D03*
X1955Y1082D03*
G54D12*
X4612Y452D03*
X2585Y432D03*
X813Y530D03*
X537Y530D03*
X2683Y334D03*
X1541Y353D03*
X4966Y1377D03*
X4750Y1397D03*
X3136Y826D03*
X5675Y176D03*
X5872Y97D03*
X3175Y767D03*
X3234Y688D03*
X2919Y1219D03*
X3037Y1219D03*
X3195Y1003D03*
X3274Y609D03*
X5675Y235D03*
X5970Y117D03*
X5675Y294D03*
X8844Y137D03*
X5675Y353D03*
X9868Y255D03*
X3529Y393D03*
X3510Y471D03*
X3529Y530D03*
X3569Y590D03*
X5675Y649D03*
X5675Y708D03*
X5203Y1200D03*
X5085Y1200D03*
X10970Y491D03*
X12152Y590D03*
X13274Y688D03*
X14120Y767D03*
X18766Y983D03*
X17959Y1082D03*
X17014Y1141D03*
X15911Y1180D03*
X1148Y1042D03*
X1305Y1239D03*
G54D13*
X104Y1475D03*
X104Y117D03*
X19533Y137D03*
X19592Y1495D03*
X15419Y176D03*
X10734Y176D03*
X8116Y1259D03*
X11699Y1279D03*
X15242Y1338D03*
G54D14*
X754Y1082D03*
X754Y1318D03*
G54D15*
X2092Y1285D03*
X4553Y1305D03*
G04 End of Mask0*
M02*