; NON-PLATED HOLES START AT T1
; THROUGH (PLATED) HOLES START AT T100
M48
INCH
T1C0.086614
T100C0.015748
T101C0.040000
T102C0.035000
%
T1
X001042Y001171
X001042Y014753
X152420Y013375
X116987Y012785
X154192Y001761
X195333Y001367
X107342Y001761
X081160Y012588
X195924Y014950
T100
X056751Y001761
X025845Y004320
X005373Y005304
X179586Y010816
X056751Y002942
X046121Y004517
X052026Y011997
X035688Y005895
X035294Y003926
X008128Y005304
X035294Y005304
X058719Y000974
X121515Y005895
X141200Y007667
X056751Y007076
X187657Y009832
X013050Y012391
X011475Y010422
X098680Y002548
X026829Y003336
X170137Y011407
X031357Y008257
X049664Y013769
X015412Y003533
X032735Y006092
X088444Y001367
X035097Y004714
X056751Y003533
X031947Y010029
X047499Y013966
X050845Y011997
X109704Y004911
X056751Y002352
X031751Y007667
X056751Y006485
X029192Y012194
X132736Y006879
X059703Y001170
X032341Y006879
X030373Y012194
X159114Y011800
T101
X006538Y013178
X002538Y013178
X003538Y010816
X003538Y013178
X005538Y010816
X007538Y013178
X007538Y010816
X004538Y010816
X006538Y010816
X004538Y013178
X002538Y010816
X005538Y013178
T102
X023924Y005848
X048530Y009045
X100648Y014163
X039593Y014163
X023924Y010848
X169515Y014163
X048530Y010045
X053601Y009045
X015546Y007863
X048530Y008045
X020924Y008848
X048530Y007045
X122271Y014163
X075026Y014163
X045530Y008045
X020924Y005848
X015546Y010816
X028995Y007863
X049601Y008060
X098648Y014163
X086837Y014163
X023924Y009848
X181326Y014163
X024995Y008848
X044349Y008060
X019546Y010816
X049601Y011013
X027782Y014163
X044349Y011013
X065215Y014163
X045530Y007045
X028995Y009832
X015971Y014163
X024995Y010816
X049601Y010029
X193137Y014163
X020924Y007848
X136082Y014163
X023924Y008848
X015546Y009832
X045530Y011045
X088837Y014163
X020924Y010848
X053601Y011013
X017971Y014163
X040349Y010029
X020924Y011848
X110460Y014163
X159704Y014163
X049601Y009045
X015546Y008848
X028995Y008848
X077026Y014163
X053601Y010029
X029782Y014163
X048530Y012045
X044349Y009045
X048530Y013045
X023924Y011848
X023924Y006848
X051404Y014163
X134082Y014163
X045530Y013045
X183326Y014163
X023924Y007848
X063215Y014163
X053404Y014163
X020924Y012848
X045530Y012045
X171515Y014163
X045530Y006045
X045530Y010045
X019546Y007863
X024995Y009832
X023924Y012848
X044349Y010029
X020924Y006848
X024995Y007863
X048530Y006045
X041593Y014163
X145893Y014163
X195137Y014163
X028995Y010816
X157704Y014163
X020924Y009848
X040349Y009045
X045530Y009045
X040349Y008060
X048530Y011045
X112460Y014163
X124271Y014163
X053601Y008060
X019546Y008848
X147893Y014163
X019546Y009832
X040349Y011013
T00
M30
