G04 MADE WITH FRITZING*
G04 WWW.FRITZING.ORG*
G04 DOUBLE SIDED*
G04 HOLES PLATED*
G04 CONTOUR ON CENTER OF CONTOUR VECTOR*
%ASAXBY*%
%FSLAX23Y23*%
%MOIN*%
%OFA0B0*%
%SFA1.0B1.0*%
%ADD10C,0.085000*%
%ADD11C,0.088000*%
%ADD12C,0.096614*%
%ADD13C,0.049370*%
%ADD14R,0.085000X0.085000*%
%LNMASK0*%
G90*
G70*
G54D10*
X3959Y1416D03*
X4159Y1416D03*
X6322Y1416D03*
X6522Y1416D03*
X5140Y1416D03*
X5340Y1416D03*
X9865Y1416D03*
X10065Y1416D03*
X8684Y1416D03*
X8884Y1416D03*
X7503Y1416D03*
X7703Y1416D03*
X2778Y1416D03*
X2978Y1416D03*
X1597Y1416D03*
X1797Y1416D03*
X12227Y1416D03*
X12427Y1416D03*
X11046Y1416D03*
X11246Y1416D03*
X14589Y1416D03*
X14789Y1416D03*
X13408Y1416D03*
X13608Y1416D03*
X15770Y1416D03*
X15970Y1416D03*
X16952Y1416D03*
X17152Y1416D03*
X18133Y1416D03*
X18333Y1416D03*
X19314Y1416D03*
X19514Y1416D03*
G54D11*
X681Y1239D03*
X581Y1239D03*
X481Y1239D03*
X381Y1239D03*
X281Y1239D03*
G54D10*
X9697Y1068D03*
X9997Y1068D03*
X9697Y968D03*
X9997Y968D03*
X9697Y868D03*
X9997Y868D03*
X9697Y768D03*
X9997Y768D03*
X9697Y668D03*
X9997Y668D03*
X9697Y568D03*
X9997Y568D03*
X9697Y468D03*
X9997Y468D03*
X9697Y368D03*
X9997Y368D03*
X12158Y1088D03*
X12458Y1088D03*
X12158Y988D03*
X12458Y988D03*
X12158Y888D03*
X12458Y888D03*
X12158Y788D03*
X12458Y788D03*
X12158Y688D03*
X12458Y688D03*
X12158Y588D03*
X12458Y588D03*
X12158Y488D03*
X12458Y488D03*
X12158Y388D03*
X12458Y388D03*
X13057Y983D03*
X13457Y983D03*
X11600Y688D03*
X12000Y688D03*
X11600Y786D03*
X12000Y786D03*
X11600Y983D03*
X12000Y983D03*
X11600Y885D03*
X12000Y885D03*
X11620Y590D03*
X12020Y590D03*
X11600Y1082D03*
X12000Y1082D03*
X11640Y491D03*
X12040Y491D03*
X9159Y471D03*
X9559Y471D03*
X9159Y668D03*
X9559Y668D03*
X9159Y767D03*
X9559Y767D03*
X9159Y570D03*
X9559Y570D03*
X10170Y973D03*
X10557Y1072D03*
X9159Y865D03*
X9559Y865D03*
X9159Y1062D03*
X9559Y1062D03*
X9159Y964D03*
X9559Y964D03*
G54D12*
X104Y1475D03*
X104Y117D03*
X19533Y137D03*
X19592Y1495D03*
X15419Y176D03*
X4651Y235D03*
X8116Y1259D03*
X3451Y1338D03*
X15242Y1338D03*
G54D13*
X12466Y156D03*
X11896Y196D03*
X734Y905D03*
X10616Y865D03*
X10518Y668D03*
X12624Y97D03*
X10518Y196D03*
X872Y944D03*
X9966Y1279D03*
X1049Y1062D03*
G54D14*
X9697Y1068D03*
X12158Y1088D03*
G04 End of Mask0*
M02*