; NON-PLATED HOLES START AT T1
; THROUGH (PLATED) HOLES START AT T100
M48
INCH
T1C0.086614
T100C0.015748
T101C0.035000
T102C0.038000
%
T1
X034507Y013375
X046514Y002352
X152420Y013375
X195333Y001367
X001042Y001171
X154192Y001761
X001042Y014753
X081160Y012588
X195924Y014950
T100
X007341Y009045
X010491Y010619
X124664Y001564
X105176Y001958
X099664Y012785
X106160Y008651
X126239Y000974
X008719Y009438
X105176Y006682
X118956Y001958
T101
X096971Y003682
X193137Y014163
X098648Y014163
X120003Y008848
X134082Y014163
X116003Y010816
X017971Y014163
X096971Y005682
X120003Y006879
X099971Y004682
X116003Y007863
X065215Y014163
X124578Y009879
X105570Y010721
X134570Y009832
X124578Y004879
X120200Y005895
X145893Y014163
X121578Y008879
X041593Y014163
X091593Y008651
X124578Y008879
X112460Y014163
X029782Y014163
X091593Y004714
X096971Y008682
X015971Y014163
X116003Y009832
X116397Y004911
X096971Y009682
X124271Y014163
X088837Y014163
X091593Y005698
X100648Y014163
X124578Y010879
X120003Y010816
X099971Y010682
X136082Y014163
X120003Y007863
X121578Y005879
X099971Y008682
X183326Y014163
X195137Y014163
X099971Y006682
X116200Y005895
X099971Y009682
X130570Y009832
X027782Y014163
X095593Y006682
X099971Y007682
X096971Y004682
X121578Y009879
X077026Y014163
X121578Y007879
X039593Y014163
X124578Y003879
X124578Y005879
X110460Y014163
X101695Y009730
X095593Y005698
X116003Y008848
X120397Y004911
X121578Y003879
X063215Y014163
X157704Y014163
X121578Y006879
X075026Y014163
X086837Y014163
X096971Y007682
X116003Y006879
X121578Y010879
X091593Y007667
X091593Y010619
X124578Y007879
X099971Y005682
X099971Y003682
X171515Y014163
X095593Y010619
X095593Y009635
X096971Y006682
X095593Y008651
X122271Y014163
X051404Y014163
X091593Y006682
X096971Y010682
X091593Y009635
X181326Y014163
X159704Y014163
X120003Y009832
X124578Y006879
X169515Y014163
X095593Y004714
X053404Y014163
X147893Y014163
X121578Y004879
X095593Y007667
T102
X003814Y012391
X004814Y012391
X006814Y012391
X005814Y012391
X002814Y012391
T00
M30
