G04 MADE WITH FRITZING*
G04 WWW.FRITZING.ORG*
G04 DOUBLE SIDED*
G04 HOLES PLATED*
G04 CONTOUR ON CENTER OF CONTOUR VECTOR*
%ASAXBY*%
%FSLAX23Y23*%
%MOIN*%
%OFA0B0*%
%SFA1.0B1.0*%
%ADD10C,0.075000*%
%ADD11C,0.078000*%
%ADD12C,0.039370*%
%ADD13R,0.075000X0.075000*%
%ADD14C,0.024000*%
%ADD15C,0.016000*%
%LNCOPPER1*%
G90*
G70*
G54D10*
X3959Y1416D03*
X4159Y1416D03*
X6322Y1416D03*
X6522Y1416D03*
X5140Y1416D03*
X5340Y1416D03*
X9865Y1416D03*
X10065Y1416D03*
X8684Y1416D03*
X8884Y1416D03*
X7503Y1416D03*
X7703Y1416D03*
X2778Y1416D03*
X2978Y1416D03*
X1597Y1416D03*
X1797Y1416D03*
X12227Y1416D03*
X12427Y1416D03*
X11046Y1416D03*
X11246Y1416D03*
X14589Y1416D03*
X14789Y1416D03*
X13408Y1416D03*
X13608Y1416D03*
X15770Y1416D03*
X15970Y1416D03*
X16952Y1416D03*
X17152Y1416D03*
X18133Y1416D03*
X18333Y1416D03*
X19314Y1416D03*
X19514Y1416D03*
X9697Y1068D03*
X9997Y1068D03*
X9697Y968D03*
X9997Y968D03*
X9697Y868D03*
X9997Y868D03*
X9697Y768D03*
X9997Y768D03*
X9697Y668D03*
X9997Y668D03*
X9697Y568D03*
X9997Y568D03*
X9697Y468D03*
X9997Y468D03*
X9697Y368D03*
X9997Y368D03*
X12158Y1088D03*
X12458Y1088D03*
X12158Y988D03*
X12458Y988D03*
X12158Y888D03*
X12458Y888D03*
X12158Y788D03*
X12458Y788D03*
X12158Y688D03*
X12458Y688D03*
X12158Y588D03*
X12458Y588D03*
X12158Y488D03*
X12458Y488D03*
X12158Y388D03*
X12458Y388D03*
X13057Y983D03*
X13457Y983D03*
G54D11*
X681Y1239D03*
X581Y1239D03*
X481Y1239D03*
X381Y1239D03*
X281Y1239D03*
G54D12*
X12466Y156D03*
X11896Y196D03*
X734Y905D03*
X10616Y865D03*
X10518Y668D03*
X12624Y97D03*
X10518Y196D03*
X872Y944D03*
G54D10*
X11600Y983D03*
X12000Y983D03*
X11600Y885D03*
X12000Y885D03*
X11600Y1082D03*
X12000Y1082D03*
X11600Y786D03*
X12000Y786D03*
X11600Y688D03*
X12000Y688D03*
X11620Y590D03*
X12020Y590D03*
X11640Y491D03*
X12040Y491D03*
X10170Y973D03*
X10557Y1072D03*
G54D12*
X9966Y1279D03*
X1049Y1062D03*
G54D10*
X9159Y1062D03*
X9559Y1062D03*
X9159Y964D03*
X9559Y964D03*
X9159Y865D03*
X9559Y865D03*
X9159Y767D03*
X9559Y767D03*
X9159Y668D03*
X9559Y668D03*
X9159Y570D03*
X9559Y570D03*
X9159Y471D03*
X9559Y471D03*
G54D13*
X9697Y1068D03*
X12158Y1088D03*
G54D14*
X9868Y490D02*
X9891Y120D01*
D02*
X239Y120D02*
X280Y1209D01*
D02*
X9868Y1060D02*
X9868Y490D01*
D02*
X9891Y120D02*
X239Y120D01*
D02*
X9969Y1067D02*
X9868Y1060D01*
D02*
X9868Y490D02*
X9969Y473D01*
D02*
X12231Y97D02*
X12306Y134D01*
D02*
X12306Y490D02*
X12306Y608D01*
D02*
X12306Y608D02*
X12328Y1083D01*
D02*
X9891Y120D02*
X12231Y97D01*
D02*
X12328Y1083D02*
X12429Y1087D01*
D02*
X12306Y134D02*
X12306Y490D01*
D02*
X12306Y490D02*
X12429Y488D01*
D02*
X380Y394D02*
X381Y1209D01*
D02*
X9669Y368D02*
X380Y394D01*
D02*
X11878Y203D02*
X10363Y868D01*
D02*
X10363Y868D02*
X10026Y868D01*
D02*
X12466Y175D02*
X12459Y359D01*
D02*
X721Y918D02*
X613Y1023D01*
D02*
X613Y1023D02*
X586Y1209D01*
D02*
X8983Y1240D02*
X8590Y1199D01*
D02*
X8433Y1100D02*
X8255Y984D01*
D02*
X8590Y1199D02*
X8433Y1100D01*
D02*
X772Y868D02*
X748Y891D01*
D02*
X10601Y877D02*
X10246Y1146D01*
D02*
X8255Y984D02*
X772Y868D01*
D02*
X9554Y1220D02*
X9335Y1240D01*
D02*
X9335Y1240D02*
X8983Y1240D01*
D02*
X10246Y1146D02*
X9554Y1220D01*
D02*
X10499Y668D02*
X10026Y668D01*
D02*
X12624Y568D02*
X12486Y585D01*
D02*
X12624Y116D02*
X12624Y568D01*
D02*
X10496Y529D02*
X10026Y566D01*
D02*
X10516Y215D02*
X10496Y529D01*
D02*
X698Y1214D02*
X862Y960D01*
G54D15*
D02*
X15402Y727D02*
X18372Y690D01*
D02*
X18372Y690D02*
X18824Y416D01*
D02*
X19454Y668D02*
X19511Y1388D01*
D02*
X18824Y416D02*
X19454Y668D01*
D02*
X13485Y980D02*
X15402Y727D01*
G54D14*
D02*
X380Y1416D02*
X539Y1494D01*
D02*
X539Y1494D02*
X1365Y1534D01*
D02*
X1365Y1534D02*
X1594Y1516D01*
D02*
X381Y1269D02*
X380Y1416D01*
D02*
X19317Y1516D02*
X19315Y1445D01*
D02*
X18113Y1486D02*
X18176Y1516D01*
D02*
X8668Y1508D02*
X9831Y1523D01*
D02*
X7491Y1505D02*
X8668Y1508D01*
D02*
X9831Y1523D02*
X11031Y1501D01*
D02*
X6331Y1516D02*
X7491Y1505D01*
D02*
X2776Y1501D02*
X3950Y1520D01*
D02*
X1594Y1516D02*
X2776Y1501D01*
D02*
X3950Y1520D02*
X5109Y1512D01*
D02*
X5109Y1512D02*
X6331Y1516D01*
D02*
X18039Y1516D02*
X18113Y1486D01*
D02*
X18176Y1516D02*
X19317Y1516D01*
D02*
X16946Y1501D02*
X18039Y1516D01*
D02*
X11031Y1501D02*
X12213Y1508D01*
D02*
X13391Y1508D02*
X14583Y1527D01*
D02*
X12213Y1508D02*
X13391Y1508D01*
D02*
X14583Y1527D02*
X15776Y1516D01*
D02*
X15776Y1516D02*
X16946Y1501D01*
D02*
X18113Y1486D02*
X18125Y1444D01*
D02*
X16946Y1501D02*
X16950Y1445D01*
D02*
X15776Y1516D02*
X15772Y1445D01*
D02*
X14583Y1527D02*
X14588Y1445D01*
D02*
X13391Y1508D02*
X13403Y1444D01*
D02*
X12213Y1508D02*
X12223Y1445D01*
D02*
X11031Y1501D02*
X11041Y1445D01*
D02*
X9831Y1523D02*
X9856Y1444D01*
D02*
X8668Y1508D02*
X8679Y1445D01*
D02*
X7491Y1505D02*
X7499Y1445D01*
D02*
X6331Y1516D02*
X6324Y1445D01*
D02*
X5109Y1512D02*
X5132Y1444D01*
D02*
X3950Y1520D02*
X3957Y1445D01*
D02*
X2776Y1501D02*
X2777Y1445D01*
D02*
X1594Y1516D02*
X1596Y1445D01*
D02*
X13028Y983D02*
X12486Y988D01*
D02*
X12029Y1083D02*
X12129Y1087D01*
D02*
X12029Y984D02*
X12129Y987D01*
D02*
X12029Y885D02*
X12129Y887D01*
D02*
X12029Y787D02*
X12129Y788D01*
D02*
X12029Y688D02*
X12129Y688D01*
D02*
X12049Y589D02*
X12129Y588D01*
D02*
X12068Y490D02*
X12129Y489D01*
G54D15*
D02*
X12721Y1140D02*
X12841Y1140D01*
D02*
X11838Y1159D02*
X12249Y1159D01*
D02*
X12249Y1159D02*
X12310Y1159D01*
D02*
X12841Y1140D02*
X18335Y823D01*
D02*
X12310Y1159D02*
X12721Y1140D01*
D02*
X11757Y1159D02*
X11838Y1159D01*
D02*
X18352Y1340D02*
X18340Y1389D01*
D02*
X11621Y1092D02*
X11757Y1159D01*
D02*
X18335Y823D02*
X18352Y1340D01*
D02*
X11463Y1082D02*
X11580Y1179D01*
D02*
X11580Y1179D02*
X11719Y1201D01*
D02*
X12013Y1201D02*
X12682Y1179D01*
D02*
X12682Y1179D02*
X17213Y1001D01*
D02*
X17213Y1001D02*
X17156Y1388D01*
D02*
X11582Y997D02*
X11463Y1082D01*
D02*
X11719Y1201D02*
X12013Y1201D01*
D02*
X11560Y1221D02*
X11757Y1240D01*
D02*
X14474Y1159D02*
X16007Y1162D01*
D02*
X11405Y1082D02*
X11560Y1221D01*
D02*
X11757Y1240D02*
X12741Y1221D01*
D02*
X16007Y1162D02*
X15974Y1393D01*
D02*
X11584Y901D02*
X11405Y1082D01*
D02*
X12741Y1221D02*
X14474Y1159D01*
D02*
X11324Y1082D02*
X11502Y1240D01*
D02*
X11502Y1240D02*
X11621Y1279D01*
D02*
X11621Y1279D02*
X12821Y1259D01*
D02*
X14769Y1259D02*
X14786Y1393D01*
D02*
X11585Y803D02*
X11324Y1082D01*
D02*
X12821Y1259D02*
X14769Y1259D01*
D02*
X12899Y1298D02*
X13669Y1318D01*
D02*
X11246Y1082D02*
X11444Y1259D01*
D02*
X11444Y1259D02*
X11621Y1318D01*
D02*
X13669Y1318D02*
X13620Y1397D01*
D02*
X11585Y705D02*
X11246Y1082D01*
D02*
X11621Y1318D02*
X12899Y1298D01*
D02*
X11146Y1082D02*
X11363Y1279D01*
D02*
X11502Y668D02*
X11146Y1082D01*
D02*
X11363Y1279D02*
X11482Y1337D01*
D02*
X11621Y1376D02*
X11680Y1376D01*
D02*
X11680Y1376D02*
X12446Y1357D01*
D02*
X12446Y1357D02*
X12434Y1394D01*
D02*
X11601Y602D02*
X11502Y668D01*
D02*
X11482Y1337D02*
X11621Y1376D01*
D02*
X10991Y1082D02*
X11444Y609D01*
D02*
X11444Y609D02*
X11620Y503D01*
D02*
X11030Y1179D02*
X10991Y1082D01*
D02*
X11227Y1395D02*
X11030Y1179D01*
G54D14*
D02*
X10544Y1098D02*
X10419Y1337D01*
D02*
X10419Y1337D02*
X10093Y1410D01*
D02*
X10026Y969D02*
X10141Y972D01*
D02*
X8313Y1141D02*
X8412Y1299D01*
D02*
X8412Y1299D02*
X9256Y1336D01*
D02*
X1068Y1062D02*
X8313Y1141D01*
D02*
X9256Y1336D02*
X9948Y1280D01*
D02*
X9669Y469D02*
X9588Y471D01*
D02*
X9669Y569D02*
X9588Y570D01*
D02*
X9669Y668D02*
X9588Y668D01*
D02*
X9669Y768D02*
X9588Y767D01*
D02*
X9669Y868D02*
X9588Y866D01*
D02*
X9669Y967D02*
X9588Y965D01*
D02*
X9669Y1067D02*
X9588Y1063D01*
G04 End of Copper1*
M02*